<svg xmlns="http://www.w3.org/2000/svg" viewBox="0 0 32 32" fill="none">
  <rect width="32" height="32" rx="6" fill="url(#gradient)"/>
  <path d="M16 8C11.58 8 8 11.58 8 16s3.58 8 8 8 8-3.58 8-8-3.58-8-8-8zm0 14.4c-3.53 0-6.4-2.87-6.4-6.4S12.47 9.6 16 9.6s6.4 2.87 6.4 6.4-2.87 6.4-6.4 6.4z" fill="white"/>
  <path d="M16 12.8c-1.77 0-3.2 1.43-3.2 3.2s1.43 3.2 3.2 3.2 3.2-1.43 3.2-3.2-1.43-3.2-3.2-3.2z" fill="white"/>
  <defs>
    <linearGradient id="gradient" x1="0" y1="0" x2="32" y2="32">
      <stop stop-color="#3B82F6"/>
      <stop offset="1" stop-color="#8B5CF6"/>
    </linearGradient>
  </defs>
</svg>
